<svg width="78" height="21" viewBox="0 0 78 21" fill="none" xmlns="http://www.w3.org/2000/svg">
<path d="M10.5908 10.573V12.2722H0.844727V10.573H10.5908ZM6.62598 6.42261V16.7742H4.81934V6.42261H6.62598Z" fill="white"/>
<path d="M23.3555 12.6023C23.3555 12.4265 23.3281 12.2703 23.2734 12.1335C23.2227 11.9968 23.1309 11.8718 22.998 11.7585C22.8652 11.6453 22.6777 11.5359 22.4355 11.4304C22.1973 11.321 21.8926 11.2097 21.5215 11.0964C21.1152 10.9714 20.7402 10.8328 20.3965 10.6804C20.0566 10.5242 19.7598 10.3445 19.5059 10.1414C19.252 9.93433 19.0547 9.698 18.9141 9.43237C18.7734 9.16284 18.7031 8.85229 18.7031 8.50073C18.7031 8.15308 18.7754 7.83667 18.9199 7.55151C19.0684 7.26636 19.2773 7.02026 19.5469 6.81323C19.8203 6.60229 20.1426 6.44019 20.5137 6.3269C20.8848 6.20972 21.2949 6.15112 21.7441 6.15112C22.377 6.15112 22.9219 6.26831 23.3789 6.50269C23.8398 6.73706 24.1934 7.05151 24.4395 7.44604C24.6895 7.84058 24.8145 8.27612 24.8145 8.75269H23.3555C23.3555 8.47144 23.2949 8.22339 23.1738 8.00854C23.0566 7.78979 22.877 7.61792 22.6348 7.49292C22.3965 7.36792 22.0938 7.30542 21.7266 7.30542C21.3789 7.30542 21.0898 7.35815 20.8594 7.46362C20.6289 7.56909 20.457 7.71167 20.3438 7.89136C20.2305 8.07104 20.1738 8.27417 20.1738 8.50073C20.1738 8.66089 20.2109 8.80737 20.2852 8.94019C20.3594 9.06909 20.4727 9.19019 20.625 9.30347C20.7773 9.41284 20.9688 9.51636 21.1992 9.61401C21.4297 9.71167 21.7012 9.80542 22.0137 9.89526C22.4863 10.0359 22.8984 10.1921 23.25 10.364C23.6016 10.532 23.8945 10.7234 24.1289 10.9382C24.3633 11.1531 24.5391 11.3972 24.6562 11.6707C24.7734 11.9402 24.832 12.2468 24.832 12.5906C24.832 12.95 24.7598 13.2742 24.6152 13.5632C24.4707 13.8484 24.2637 14.0925 23.9941 14.2957C23.7285 14.4949 23.4082 14.6492 23.0332 14.7585C22.6621 14.864 22.248 14.9167 21.791 14.9167C21.3809 14.9167 20.9766 14.8621 20.5781 14.7527C20.1836 14.6433 19.8242 14.4773 19.5 14.2546C19.1758 14.0281 18.918 13.7468 18.7266 13.4109C18.5352 13.071 18.4395 12.6746 18.4395 12.2214H19.9102C19.9102 12.4988 19.957 12.7351 20.0508 12.9304C20.1484 13.1257 20.2832 13.2859 20.4551 13.4109C20.627 13.532 20.8262 13.6218 21.0527 13.6804C21.2832 13.739 21.5293 13.7683 21.791 13.7683C22.1348 13.7683 22.4219 13.7195 22.6523 13.6218C22.8867 13.5242 23.0625 13.3875 23.1797 13.2117C23.2969 13.0359 23.3555 12.8328 23.3555 12.6023ZM29.8066 13.3054V8.45972H31.2246V14.7996H29.8887L29.8066 13.3054ZM30.0059 11.9871L30.4805 11.9753C30.4805 12.4011 30.4336 12.7937 30.3398 13.1531C30.2461 13.5085 30.1016 13.8191 29.9062 14.0847C29.7109 14.3464 29.4609 14.5515 29.1562 14.7C28.8516 14.8445 28.4863 14.9167 28.0605 14.9167C27.752 14.9167 27.4688 14.8718 27.2109 14.782C26.9531 14.6921 26.7305 14.5535 26.543 14.366C26.3594 14.1785 26.2168 13.9343 26.1152 13.6335C26.0137 13.3328 25.9629 12.9734 25.9629 12.5554V8.45972H27.375V12.5671C27.375 12.7976 27.4023 12.991 27.457 13.1472C27.5117 13.2996 27.5859 13.4226 27.6797 13.5164C27.7734 13.6101 27.8828 13.6765 28.0078 13.7156C28.1328 13.7546 28.2656 13.7742 28.4062 13.7742C28.8086 13.7742 29.125 13.696 29.3555 13.5398C29.5898 13.3796 29.7559 13.1648 29.8535 12.8953C29.9551 12.6257 30.0059 12.323 30.0059 11.9871ZM32.6777 5.79956H34.0898V13.446L33.9551 14.7996H32.6777V5.79956ZM38.2266 11.571V11.6941C38.2266 12.1628 38.1738 12.5945 38.0684 12.989C37.9668 13.3796 37.8105 13.7195 37.5996 14.0085C37.3926 14.2976 37.1348 14.5222 36.8262 14.6824C36.5215 14.8386 36.168 14.9167 35.7656 14.9167C35.3711 14.9167 35.0273 14.8425 34.7344 14.6941C34.4414 14.5457 34.1953 14.3347 33.9961 14.0613C33.8008 13.7878 33.6426 13.4617 33.5215 13.0828C33.4004 12.7039 33.3145 12.2859 33.2637 11.8289V11.4363C33.3145 10.9753 33.4004 10.5574 33.5215 10.1824C33.6426 9.80347 33.8008 9.47729 33.9961 9.20386C34.1953 8.92651 34.4395 8.71362 34.7285 8.56519C35.0215 8.41675 35.3633 8.34253 35.7539 8.34253C36.1602 8.34253 36.5176 8.42065 36.8262 8.5769C37.1387 8.73315 37.3984 8.95581 37.6055 9.24487C37.8125 9.53003 37.9668 9.86987 38.0684 10.2644C38.1738 10.6589 38.2266 11.0945 38.2266 11.571ZM36.8145 11.6941V11.571C36.8145 11.2859 36.791 11.0183 36.7441 10.7683C36.6973 10.5144 36.6191 10.2917 36.5098 10.1003C36.4043 9.90894 36.2598 9.75854 36.0762 9.64917C35.8965 9.53589 35.6719 9.47925 35.4023 9.47925C35.1523 9.47925 34.9375 9.52222 34.7578 9.60815C34.5781 9.69409 34.4277 9.81128 34.3066 9.95972C34.1855 10.1082 34.0898 10.28 34.0195 10.4753C33.9531 10.6707 33.9082 10.8816 33.8848 11.1082V12.1687C33.9199 12.4617 33.9941 12.7312 34.1074 12.9773C34.2246 13.2195 34.3887 13.4148 34.5996 13.5632C34.8105 13.7078 35.082 13.78 35.4141 13.78C35.6758 13.78 35.8965 13.7273 36.0762 13.6218C36.2559 13.5164 36.3984 13.3699 36.5039 13.1824C36.6133 12.991 36.6914 12.7683 36.7383 12.5144C36.7891 12.2605 36.8145 11.9871 36.8145 11.6941ZM42.2637 10.5925V11.7175H39.1641V10.5925H42.2637ZM46.4062 8.45972V9.49097H42.832V8.45972H46.4062ZM43.8633 6.90698H45.2754V13.0476C45.2754 13.2429 45.3027 13.3933 45.3574 13.4988C45.416 13.6003 45.4961 13.6687 45.5977 13.7039C45.6992 13.739 45.8184 13.7566 45.9551 13.7566C46.0527 13.7566 46.1465 13.7507 46.2363 13.739C46.3262 13.7273 46.3984 13.7156 46.4531 13.7039L46.459 14.782C46.3418 14.8171 46.2051 14.8484 46.0488 14.8757C45.8965 14.9031 45.7207 14.9167 45.5215 14.9167C45.1973 14.9167 44.9102 14.8601 44.6602 14.7468C44.4102 14.6296 44.2148 14.4402 44.0742 14.1785C43.9336 13.9167 43.8633 13.5691 43.8633 13.1355V6.90698ZM48.8906 5.79956V14.7996H47.4844V5.79956H48.8906ZM48.6445 11.3953L48.1875 11.3894C48.1914 10.9519 48.252 10.5476 48.3691 10.1765C48.4902 9.80542 48.6582 9.48315 48.873 9.20972C49.0918 8.93237 49.3535 8.71948 49.6582 8.57104C49.9629 8.4187 50.3008 8.34253 50.6719 8.34253C50.9844 8.34253 51.2656 8.3855 51.5156 8.47144C51.7695 8.55737 51.9883 8.69604 52.1719 8.88745C52.3555 9.07495 52.4941 9.32104 52.5879 9.62573C52.6855 9.92651 52.7344 10.2937 52.7344 10.7273V14.7996H51.3164V10.7156C51.3164 10.4109 51.2715 10.1687 51.1816 9.98901C51.0957 9.80933 50.9688 9.68042 50.8008 9.60229C50.6328 9.52026 50.4277 9.47925 50.1855 9.47925C49.9316 9.47925 49.707 9.53003 49.5117 9.63159C49.3203 9.73315 49.1602 9.87183 49.0312 10.0476C48.9023 10.2234 48.8047 10.4265 48.7383 10.657C48.6758 10.8875 48.6445 11.1335 48.6445 11.3953ZM55.582 9.66675V14.7996H54.1699V8.45972H55.5176L55.582 9.66675ZM57.5215 8.4187L57.5098 9.7312C57.4238 9.71558 57.3301 9.70386 57.2285 9.69604C57.1309 9.68823 57.0332 9.68433 56.9355 9.68433C56.6934 9.68433 56.4805 9.71948 56.2969 9.78979C56.1133 9.8562 55.959 9.95386 55.834 10.0828C55.7129 10.2078 55.6191 10.3601 55.5527 10.5398C55.4863 10.7195 55.4473 10.9207 55.4355 11.1433L55.1133 11.1667C55.1133 10.7683 55.1523 10.3992 55.2305 10.0593C55.3086 9.71948 55.4258 9.42065 55.582 9.16284C55.7422 8.90503 55.9414 8.70386 56.1797 8.55933C56.4219 8.41479 56.7012 8.34253 57.0176 8.34253C57.1035 8.34253 57.1953 8.35034 57.293 8.36597C57.3945 8.38159 57.4707 8.39917 57.5215 8.4187ZM61.084 14.9167C60.6152 14.9167 60.1914 14.8406 59.8125 14.6882C59.4375 14.532 59.1172 14.3152 58.8516 14.0378C58.5898 13.7605 58.3887 13.4343 58.248 13.0593C58.1074 12.6843 58.0371 12.28 58.0371 11.8464V11.6121C58.0371 11.116 58.1094 10.6667 58.2539 10.2644C58.3984 9.86206 58.5996 9.51831 58.8574 9.23315C59.1152 8.94409 59.4199 8.72339 59.7715 8.57104C60.123 8.4187 60.5039 8.34253 60.9141 8.34253C61.3672 8.34253 61.7637 8.4187 62.1035 8.57104C62.4434 8.72339 62.7246 8.93823 62.9473 9.21558C63.1738 9.48901 63.3418 9.81519 63.4512 10.1941C63.5645 10.573 63.6211 10.991 63.6211 11.448V12.0515H58.7227V11.0378H62.2266V10.9265C62.2188 10.6726 62.168 10.4343 62.0742 10.2117C61.9844 9.98901 61.8457 9.80933 61.6582 9.67261C61.4707 9.53589 61.2207 9.46753 60.9082 9.46753C60.6738 9.46753 60.4648 9.51831 60.2812 9.61987C60.1016 9.71753 59.9512 9.86011 59.8301 10.0476C59.709 10.2351 59.6152 10.4617 59.5488 10.7273C59.4863 10.989 59.4551 11.2839 59.4551 11.6121V11.8464C59.4551 12.1238 59.4922 12.3816 59.5664 12.6199C59.6445 12.8542 59.7578 13.0593 59.9062 13.2351C60.0547 13.4109 60.2344 13.5496 60.4453 13.6511C60.6562 13.7488 60.8965 13.7976 61.166 13.7976C61.5059 13.7976 61.8086 13.7292 62.0742 13.5925C62.3398 13.4558 62.5703 13.2625 62.7656 13.0125L63.5098 13.7332C63.373 13.9324 63.1953 14.1238 62.9766 14.3074C62.7578 14.4871 62.4902 14.6335 62.1738 14.7468C61.8613 14.8601 61.498 14.9167 61.084 14.9167ZM68.2969 13.5281V10.5046C68.2969 10.2781 68.2559 10.0828 68.1738 9.9187C68.0918 9.75464 67.9668 9.62769 67.7988 9.53784C67.6348 9.448 67.4277 9.40308 67.1777 9.40308C66.9473 9.40308 66.748 9.44214 66.5801 9.52026C66.4121 9.59839 66.2812 9.70386 66.1875 9.83667C66.0938 9.96948 66.0469 10.1199 66.0469 10.2878H64.6406C64.6406 10.0378 64.7012 9.79565 64.8223 9.56128C64.9434 9.3269 65.1191 9.11792 65.3496 8.93433C65.5801 8.75073 65.8555 8.6062 66.1758 8.50073C66.4961 8.39526 66.8555 8.34253 67.2539 8.34253C67.7305 8.34253 68.1523 8.42261 68.5195 8.58276C68.8906 8.74292 69.1816 8.98511 69.3926 9.30933C69.6074 9.62964 69.7148 10.032 69.7148 10.5164V13.3347C69.7148 13.6238 69.7344 13.8835 69.7734 14.114C69.8164 14.3406 69.877 14.5378 69.9551 14.7058V14.7996H68.5078C68.4414 14.6472 68.3887 14.4539 68.3496 14.2195C68.3145 13.9812 68.2969 13.7507 68.2969 13.5281ZM68.502 10.9441L68.5137 11.8171H67.5C67.2383 11.8171 67.0078 11.8425 66.8086 11.8933C66.6094 11.9402 66.4434 12.0105 66.3105 12.1042C66.1777 12.198 66.0781 12.3113 66.0117 12.4441C65.9453 12.5769 65.9121 12.7273 65.9121 12.8953C65.9121 13.0632 65.9512 13.2175 66.0293 13.3582C66.1074 13.4949 66.2207 13.6023 66.3691 13.6804C66.5215 13.7585 66.7051 13.7976 66.9199 13.7976C67.209 13.7976 67.4609 13.739 67.6758 13.6218C67.8945 13.5007 68.0664 13.3542 68.1914 13.1824C68.3164 13.0066 68.3828 12.8406 68.3906 12.6843L68.8477 13.3113C68.8008 13.4714 68.7207 13.6433 68.6074 13.8269C68.4941 14.0105 68.3457 14.1863 68.1621 14.3542C67.9824 14.5183 67.7656 14.6531 67.5117 14.7585C67.2617 14.864 66.9727 14.9167 66.6445 14.9167C66.2305 14.9167 65.8613 14.8347 65.5371 14.6707C65.2129 14.5027 64.959 14.2781 64.7754 13.9968C64.5918 13.7117 64.5 13.3894 64.5 13.03C64.5 12.6941 64.5625 12.3972 64.6875 12.1394C64.8164 11.8777 65.0039 11.6589 65.25 11.4832C65.5 11.3074 65.8047 11.1746 66.1641 11.0847C66.5234 10.991 66.9336 10.9441 67.3945 10.9441H68.502ZM75.0586 13.4871V5.79956H76.4766V14.7996H75.1934L75.0586 13.4871ZM70.9336 11.7V11.5769C70.9336 11.0964 70.9902 10.6589 71.1035 10.2644C71.2168 9.86597 71.3809 9.52417 71.5957 9.23901C71.8105 8.94995 72.0723 8.72925 72.3809 8.5769C72.6895 8.42065 73.0371 8.34253 73.4238 8.34253C73.8066 8.34253 74.1426 8.41675 74.4316 8.56519C74.7207 8.71362 74.9668 8.92651 75.1699 9.20386C75.373 9.47729 75.5352 9.80542 75.6562 10.1882C75.7773 10.5671 75.8633 10.989 75.9141 11.4539V11.8464C75.8633 12.2996 75.7773 12.7136 75.6562 13.0886C75.5352 13.4636 75.373 13.7878 75.1699 14.0613C74.9668 14.3347 74.7188 14.5457 74.4258 14.6941C74.1367 14.8425 73.7988 14.9167 73.4121 14.9167C73.0293 14.9167 72.6836 14.8367 72.375 14.6765C72.0703 14.5164 71.8105 14.2917 71.5957 14.0027C71.3809 13.7136 71.2168 13.3738 71.1035 12.9832C70.9902 12.5886 70.9336 12.1609 70.9336 11.7ZM72.3457 11.5769V11.7C72.3457 11.989 72.3711 12.2585 72.4219 12.5085C72.4766 12.7585 72.5605 12.9792 72.6738 13.1707C72.7871 13.3582 72.9336 13.5066 73.1133 13.616C73.2969 13.7214 73.5156 13.7742 73.7695 13.7742C74.0898 13.7742 74.3535 13.7039 74.5605 13.5632C74.7676 13.4226 74.9297 13.2332 75.0469 12.9949C75.168 12.7527 75.25 12.4832 75.293 12.1863V11.1257C75.2695 10.8953 75.2207 10.6804 75.1465 10.4812C75.0762 10.282 74.9805 10.1082 74.8594 9.95972C74.7383 9.80737 74.5879 9.69019 74.4082 9.60815C74.2324 9.52222 74.0234 9.47925 73.7812 9.47925C73.5234 9.47925 73.3047 9.53394 73.125 9.64331C72.9453 9.75269 72.7969 9.90308 72.6797 10.0945C72.5664 10.2859 72.4824 10.5085 72.4277 10.7625C72.373 11.0164 72.3457 11.2878 72.3457 11.5769Z" fill="white"/>
</svg>
